<?xml version="1.0" encoding="UTF-8"?>
<svg width="118.78" height="27.121" data-name="Layer 1" version="1.1" viewBox="0 0 118.78 27.121" xmlns="http://www.w3.org/2000/svg" xmlns:cc="http://creativecommons.org/ns#" xmlns:dc="http://purl.org/dc/elements/1.1/" xmlns:rdf="http://www.w3.org/1999/02/22-rdf-syntax-ns#">
 <metadata>
  <rdf:RDF>
   <cc:Work rdf:about="">
    <dc:format>image/svg+xml</dc:format>
    <dc:type rdf:resource="http://purl.org/dc/dcmitype/StillImage"/>
    <dc:title>logo-5</dc:title>
   </cc:Work>
  </rdf:RDF>
 </metadata>
 <title>logo-5</title>
 <path d="m13.452 2.2449e-4a13.53 13.53 0 0 0-8.123 24.291 13.09 13.09 0 0 0 3.1992 1.8301 13.39 13.39 0 0 0 5.0703 1 13.56 13.56 0 0 0 13.529-13.551 13.39 13.39 0 0 0-1.1191-5.3809 13.25 13.25 0 0 0-2-3.2188 13.53 13.53 0 0 0-10.557-4.9707zm0.14648 2.7402-0.0098 0.01953a10.71 10.71 0 0 1 4.5195 1 4.39 4.39 0 0 1-1.08 0.31055 5.73 5.73 0 0 0-4.8496 4.8496 3 3 0 0 1-2.7109 2.6504 5.73 5.73 0 0 0-4.8496 4.8496 2.91 2.91 0 0 1-0.78906 1.7402 10.8 10.8 0 0 1 9.7695-15.42zm6.9297 2.5703a10.51 10.51 0 0 1 2.3594 2.7793 0.86 0.86 0 0 1-0.12891 0.14062 2.87 2.87 0 0 1-1.8105 0.87891 5.71 5.71 0 0 0-4.8496 4.8516 3 3 0 0 1-2.6895 2.6797 5.76 5.76 0 0 0-4.8809 4.8496 3.14 3.14 0 0 1-0.49023 1.3691 10.89 10.89 0 0 1-2.7207-2.2891c0.12-0.11 0.24133-0.21008 0.36133-0.33008a5.48 5.48 0 0 0 1.6191-3.2305 2.92 2.92 0 0 1 0.87109-1.8203 2.83 2.83 0 0 1 1.8086-0.85938 5.73 5.73 0 0 0 4.8516-4.8496 2.92 2.92 0 0 1 0.86914-1.9102 2.87 2.87 0 0 1 1.8301-0.83008 5.48 5.48 0 0 0 3-1.4297zm50.918 1.5117a1.53 1.53 0 0 0-1.4785 1.5684v0.01953a1.46 1.46 0 0 0 1.5605 1.4707 1.53 1.53 0 1 0-0.082-3.0586zm-37.049 0.81836v12.129h3v-12.129zm54.611 2.7402v0.01953c-2.48 0-4.0913 1.1707-4.1113 2.9707 0 1.4 0.94047 2.3488 2.7305 2.7188l1.7305 0.37109c0.72 0.15 1 0.24852 1 0.72852s-0.3993 0.77148-1.2793 0.77148-1.4217-0.40008-1.5117-1.0801h-2.8887c0.13 1.87 1.7996 3.0898 4.3496 3.0898s4.2793-1.2211 4.2793-3.1211c0-1.39-0.77938-2.1295-2.6094-2.5195l-1.9199-0.39062c-0.67-0.14-1-0.28977-1-0.75977s0.36922-0.78906 1.1992-0.78906 1.3711 0.41055 1.3711 1.0605h2.7305c-0.07-1.89-1.5803-3.0703-4.0703-3.0703zm-24.871 0.0098c-2.84 0-4.6797 1.7891-4.6797 4.7891v0.0098c0 3.05 1.7897 4.791 4.6797 4.791s4.6914-1.8008 4.6914-4.8008-1.8514-4.7891-4.6914-4.7891zm46.33 2e-3a2.39 2.39 0 0 0-0.1289 0.0078 2.66 2.66 0 0 0-2.6113 1.9395h-0.0586v-1.7696h-2.9004l-0.0508 9.1992h3v-5.4102a1.34 1.34 0 0 1 1.3301-1.5c0.82 0 1.2695 0.50188 1.2695 1.4219v5.4883h2.8516v-5.4297a1.31 1.31 0 0 1 1.3086-1.4805c0.84 0 1.291 0.46094 1.291 1.4609v5.4492h3v-6.25a2.91 2.91 0 0 0-3-3.1191 2.82 2.82 0 0 0-2.8203 2h-0.0605a2.39 2.39 0 0 0-2.4199-2.0078zm-67.199 0.0078c-2.84 0-4.6797 1.7891-4.6797 4.7891 0 3.05 1.7997 4.8008 4.6797 4.8008s4.6797-1.8008 4.6797-4.8008-1.8397-4.7891-4.6797-4.7891zm36.869 0.03711a2.87 2.87 0 0 0-2.6895 1.7734h-0.0605v-1.6407h-3v12.141h3v-4.5215h0.0605a2.86 2.86 0 0 0 2.8008 1.7012c2.28 0 3.6094-1.7109 3.6094-4.7109l0.0391 0.02148c0-3-1.3699-4.7217-3.6699-4.7617a2.87 2.87 0 0 0-0.0898-2e-3zm-27.428 0.04102a2.87 2.87 0 0 0-0.14258 2e-3c-2.3 0-3.6797 1.8097-3.6797 4.6797s1.4506 4.541 3.6406 4.541a2.84 2.84 0 0 0 2.7305-1.6406h0.05859v1.6797c0 0.9-0.59828 1.5195-1.7383 1.5195a1.55 1.55 0 0 1-1.6211-0.90039h-2.8789v0.01172c0.17 1.66 1.8188 2.8496 4.4688 2.8496 2.85 0 4.7812-1.3608 4.7812-3.5508v-9.0997h-3v1.6699a2.87 2.87 0 0 0-2.6191-1.7617zm41.639 0.09172v5.9297a3.19 3.19 0 0 0 3.3594 3.4512 2.61 2.61 0 0 0 2.6602-1.9102h0.0605v1.709h2.8887l0.0411-9.1797h-3v5.1797a1.53 1.53 0 0 1-1.5195 1.7305c-0.93 0-1.4902-0.57992-1.4902-1.6699v-5.2402zm-24.381 0.01953v9.1797h3v-9.1797zm-45.959 0.21094a10.82 10.82 0 0 1-10.42 13.58v0.04883a10.84 10.84 0 0 1-3-0.41992 5.78 5.78 0 0 0 0.63867-2 3 3 0 0 1 2.6816-2.6797 5.73 5.73 0 0 0 4.8594-4.8496 3 3 0 0 1 2.6797-2.6797 5.71 5.71 0 0 0 2.5605-1zm40.129 1.7598c1.02 0 1.6699 0.96914 1.6699 2.6191v0.02148c0 1.67-0.60891 2.5996-1.6289 2.5996s-1.6504-0.96961-1.6504-2.5996 0.58938-2.6406 1.6094-2.6406zm-20.869 0.0098c1.02 0 1.6699 0.96914 1.6699 2.6191v0.01172c0 1.67-0.63992 2.5898-1.6699 2.5898s-1.6602-0.98156-1.6602-2.6016 0.64016-2.6191 1.6602-2.6191zm35.869 0.2207c1.05 0 1.7207 0.92867 1.7207 2.3887v0.02148c0 1.45-0.67071 2.3594-1.7207 2.3594-1.05 0-1.7385-0.93086-1.7285-2.3809s0.67852-2.3887 1.7285-2.3887zm-25.539 0.0098c1.06 0 1.7305 0.91891 1.7305 2.3789v0.0098c0 1.48-0.66047 2.291-1.7305 2.291s-1.7109-0.83078-1.7109-2.3008 0.65094-2.3789 1.7109-2.3789z" fill="#000"/>
</svg>
